<?xml version="1.0" encoding="UTF-8" standalone="no"?>
<!-- Created with Inkscape (http://www.inkscape.org/) -->

<svg
   width="71.964325mm"
   height="126.99999mm"
   viewBox="0 0 71.964327 126.99999"
   version="1.1"
   id="svg5"
   xml:space="preserve"
   inkscape:version="1.2 (dc2aedaf03, 2022-05-15)"
   sodipodi:docname="juice.svg"
   xmlns:inkscape="http://www.inkscape.org/namespaces/inkscape"
   xmlns:sodipodi="http://sodipodi.sourceforge.net/DTD/sodipodi-0.dtd"
   xmlns="http://www.w3.org/2000/svg"
   xmlns:svg="http://www.w3.org/2000/svg"><sodipodi:namedview
     id="namedview7"
     pagecolor="#ffffff"
     bordercolor="#000000"
     borderopacity="0.25"
     inkscape:showpageshadow="2"
     inkscape:pageopacity="0.0"
     inkscape:pagecheckerboard="0"
     inkscape:deskcolor="#d1d1d1"
     inkscape:document-units="mm"
     showgrid="false"
     inkscape:zoom="0.71624579"
     inkscape:cx="-134.73029"
     inkscape:cy="238.04677"
     inkscape:window-width="1920"
     inkscape:window-height="991"
     inkscape:window-x="-9"
     inkscape:window-y="-9"
     inkscape:window-maximized="1"
     inkscape:current-layer="layer1" /><defs
     id="defs2" /><g
     inkscape:label="Camada 1"
     inkscape:groupmode="layer"
     id="layer1"
     transform="translate(-139.98302,-26.486019)"><path
       style="fill:#000000;stroke-width:0.264583"
       d="m 153.33245,152.83658 c -0.35718,-0.35719 -0.64943,-0.86661 -0.64943,-1.13205 0,-0.26544 -1.84547,-17.00823 -4.10104,-37.2062 -2.25557,-20.197971 -4.10104,-36.833549 -4.10104,-36.96795 0,-0.1344 -0.71979,-0.244364 -1.59953,-0.244364 -1.34548,0 -1.70267,-0.103145 -2.24896,-0.649433 -0.60785,-0.607848 -0.64943,-0.829042 -0.64943,-3.454712 0,-3.930303 0.3161,-4.977714 2.01491,-6.676522 0.76459,-0.764593 1.57113,-1.390165 1.79231,-1.390165 0.26123,0 0.4555,-0.347655 0.55443,-0.992188 1.10256,-7.18331 4.76273,-13.503721 10.2891,-17.767285 4.63168,-3.573318 11.34448,-6.323244 16.63623,-6.815099 1.02096,-0.0949 1.78915,-0.291387 1.79343,-0.458734 0.004,-0.161004 0.18017,-2.43586 0.3912,-5.055235 0.21104,-2.619374 0.38626,-5.095333 0.38938,-5.50213 0.003,-0.426677 0.28047,-1.014419 0.65511,-1.389063 l 0.64943,-0.649431 h 13.5178 13.51781 l 0.64943,0.649431 c 0.40937,0.409374 0.64943,0.951728 0.64943,1.467235 0,0.515507 -0.24006,1.057862 -0.64943,1.467235 l -0.64943,0.649432 h -12.13621 -12.13621 l -0.31102,4.145357 c -0.17106,2.279946 -0.28135,4.173945 -0.24509,4.208887 0.0363,0.03494 1.25656,0.204933 2.71176,0.377759 7.72641,0.917615 14.33285,3.972345 19.45358,8.995079 4.68537,4.595704 7.08076,9.250609 8.06707,15.676562 0.0841,0.547963 0.30329,0.992188 0.48955,0.992188 0.59039,0 2.54633,1.868894 3.14496,3.004991 0.48414,0.918832 0.59385,1.6392 0.67853,4.455308 0.0996,3.310734 0.0913,3.369019 -0.57462,4.034896 -0.57544,0.575448 -0.91282,0.675637 -2.27516,0.675637 -0.87974,0 -1.59953,0.04763 -1.59953,0.105844 0,0.05821 -1.84547,16.694681 -4.10104,36.96992 -2.25557,20.27524 -4.10104,37.08037 -4.10104,37.34472 0,0.26436 -0.29225,0.77289 -0.64943,1.13008 l -0.64943,0.64943 h -21.98448 -21.98447 z m 41.94849,-3.79535 c 0,-0.1163 1.25016,-11.45115 2.77813,-25.18855 1.52796,-13.7374 2.77812,-25.060794 2.77812,-25.163087 0,-0.102294 -1.27992,-0.265317 -2.84427,-0.362273 -4.54585,-0.281747 -9.362,-0.878322 -12.70613,-1.573903 -2.73969,-0.56986 -11.20829,-2.890589 -11.73424,-3.215648 -0.30945,-0.191246 -0.38497,0.689504 -2.23644,26.081581 -1.30145,17.84887 -1.84194,24.09527 -2.12307,24.5359 -0.72523,1.13672 -2.66918,1.11061 -3.42704,-0.046 -0.38504,-0.58765 -0.27087,-2.61387 1.47018,-26.09186 1.0382,-14.0001 1.7901,-25.550708 1.67088,-25.668019 -0.65195,-0.641551 -9.61964,-1.969953 -15.22137,-2.254771 l -3.62755,-0.184442 0.13304,0.897835 c 0.14749,0.995394 6.46059,57.900797 6.46059,58.234877 0,0.1154 8.69156,0.20983 19.31458,0.20983 10.62302,0 19.31459,-0.0952 19.31459,-0.21145 z m 6.08542,-54.926823 c 0,-0.05772 0.41672,-3.820496 0.92604,-8.361724 0.50932,-4.541229 0.92604,-8.304006 0.92604,-8.361725 0,-0.05772 -6.48891,-0.104942 -14.4198,-0.104942 h -14.41979 l -5e-5,0.727604 c -3e-5,0.400183 -0.18069,3.03733 -0.40148,5.860328 -0.22078,2.822998 -0.34695,5.187196 -0.28037,5.253773 0.0666,0.06658 1.64623,0.589121 3.51033,1.161208 6.59657,2.024462 12.27182,3.17582 17.94137,3.639831 3.00567,0.245991 6.21771,0.341897 6.21771,0.185647 z M 169.79154,83.768308 c 0.16911,-2.182813 0.31794,-4.534297 0.33073,-5.225521 l 0.0233,-1.256771 h -10.74944 -10.74944 l 0.15137,0.992188 c 0.0832,0.545703 0.29677,2.434407 0.47449,4.197122 l 0.32312,3.204935 3.59422,0.178255 c 4.56709,0.226502 9.8353,0.830786 12.72235,1.459301 3.80229,0.827768 3.52023,1.085845 3.87935,-3.549509 z m 0.88315,-12.005468 c 0,-0.709415 0.0744,-1.661914 0.16536,-2.116667 l 0.16537,-0.826823 h -12.7451 -12.7451 l -0.64943,0.649433 c -0.53338,0.533371 -0.64943,0.911638 -0.64943,2.116667 v 1.467233 h 13.22916 13.22917 z m 37.04167,-0.17739 c 0,-1.205029 -0.11606,-1.583296 -0.64944,-2.116667 l -0.64943,-0.649433 h -15.59158 -15.59159 l -0.15954,0.595313 c -0.0877,0.327421 -0.16116,1.279921 -0.16315,2.116666 l -0.004,1.521354 h 16.40416 16.40417 z m -36.51251,-7.139599 c 0,-0.44908 1.33122,-18.229126 1.45309,-19.407755 l 0.14724,-1.423963 -1.61973,0.183252 c -3.87409,0.438303 -9.47977,2.657605 -12.92805,5.118246 -5.16234,3.683772 -8.42542,8.642397 -9.51096,14.452996 l -0.22743,1.21739 h 11.34292 c 6.23861,0 11.34292,-0.06307 11.34292,-0.140166 z m 31.98342,-1.077224 c -0.37844,-2.025727 -0.78167,-3.3327 -1.55391,-5.036619 -3.50466,-7.732992 -11.95275,-13.418289 -21.77633,-14.654789 -1.42343,-0.179168 -2.65727,-0.256547 -2.74187,-0.171952 -0.12222,0.122215 -1.63588,18.816983 -1.66936,20.617729 -0.008,0.435242 0.83063,0.463021 13.98014,0.463021 h 13.98877 z"
       id="path1602" /></g></svg>
