<?xml version="1.0" encoding="UTF-8" standalone="no"?>
<!-- Created with Inkscape (http://www.inkscape.org/) -->

<svg
   width="112.71152mm"
   height="90.373512mm"
   viewBox="0 0 112.71152 90.373512"
   version="1.1"
   id="svg5"
   xml:space="preserve"
   inkscape:version="1.2 (dc2aedaf03, 2022-05-15)"
   sodipodi:docname="menu.svg"
   xmlns:inkscape="http://www.inkscape.org/namespaces/inkscape"
   xmlns:sodipodi="http://sodipodi.sourceforge.net/DTD/sodipodi-0.dtd"
   xmlns="http://www.w3.org/2000/svg"
   xmlns:svg="http://www.w3.org/2000/svg"><sodipodi:namedview
     id="namedview7"
     pagecolor="#ffffff"
     bordercolor="#000000"
     borderopacity="0.25"
     inkscape:showpageshadow="2"
     inkscape:pageopacity="0.0"
     inkscape:pagecheckerboard="0"
     inkscape:deskcolor="#d1d1d1"
     inkscape:document-units="mm"
     showgrid="false"
     inkscape:zoom="0.71624579"
     inkscape:cx="182.20002"
     inkscape:cy="148.69197"
     inkscape:window-width="1920"
     inkscape:window-height="991"
     inkscape:window-x="-9"
     inkscape:window-y="-9"
     inkscape:window-maximized="1"
     inkscape:current-layer="layer1" /><defs
     id="defs2" /><g
     inkscape:label="Camada 1"
     inkscape:groupmode="layer"
     id="layer1"
     transform="translate(-56.279784,-50.090491)"><path
       style="fill:#000000;stroke-width:0.264583"
       d="m 60.639778,140.30046 c -4.40905,-1.06799 -5.82215,-6.74707 -2.40636,-9.67086 0.59751,-0.51144 1.51088,-1.04782 2.02971,-1.19195 1.28402,-0.3567 52.725562,-0.3567 54.009582,0 0.51883,0.14413 1.4322,0.68051 2.02971,1.19195 2.90374,2.4855 2.43886,7.07322 -0.9166,9.0456 l -1.26269,0.74224 -26.326042,0.0422 c -14.47933,0.0232 -26.70012,-0.0484 -27.15731,-0.15917 z m -1.04447,-39.81482 c -1.12984,-0.491912 -2.67169,-2.142752 -3.03804,-3.252802 -0.7992,-2.4216 0.1757,-5.24424 2.31041,-6.68936 l 0.97709,-0.66146 h 52.823152 52.82314 l 0.9771,0.66146 c 1.60651,1.08755 2.38587,2.44532 2.50843,4.37009 0.14567,2.28772 -0.79234,4.07313 -2.72119,5.179512 l -1.33228,0.76418 -52.2552,-0.008 c -43.179112,-0.007 -52.397182,-0.0697 -53.072612,-0.36375 z m 0.32125,-39.435033 c -3.29796,-1.175552 -4.66785,-5.53611 -2.64456,-8.417968 0.43063,-0.613362 1.31345,-1.412861 1.96184,-1.776663 l 1.17887,-0.661458 37.30625,-0.08176 c 27.585202,-0.06046 37.677322,-0.0018 38.730302,0.225244 1.04564,0.225423 1.73202,0.590878 2.58297,1.375259 2.91995,2.691513 2.28661,7.263185 -1.25038,9.025747 l -1.40533,0.700304 -37.717322,-0.01161 c -31.39311,-0.0097 -37.88924,-0.0729 -38.74264,-0.377089 z"
       id="path1583" /></g></svg>
